HIERARCHY
ROOT Hips
{
	OFFSET 0.000000 0.000000 0.000000
	CHANNELS 6 Xposition Yposition Zposition Zrotation Yrotation Xrotation 
	JOINT LHipJoint
	{
		OFFSET 0.000000 0.000000 0.000000
		CHANNELS 3 Zrotation Yrotation Xrotation
		JOINT LeftUpLeg
		{
			OFFSET 1.363060 -1.794630 0.839290
			CHANNELS 3 Zrotation Yrotation Xrotation
			JOINT LeftLeg
			{
				OFFSET 2.448110 -6.726130 0.000000
				CHANNELS 3 Zrotation Yrotation Xrotation
				JOINT LeftFoot
				{
					OFFSET 2.562200 -7.039590 0.000000
					CHANNELS 3 Zrotation Yrotation Xrotation
					JOINT LeftToeBase
					{
						OFFSET 0.157640 -0.433110 2.322550
						CHANNELS 3 Zrotation Yrotation Xrotation
						End Site
						{
							OFFSET 0.000000 0.000000 0.000000
						}
					}
				}
			}
		}
	}
	JOINT RHipJoint
	{
		OFFSET 0.000000 0.000000 0.000000
		CHANNELS 3 Zrotation Yrotation Xrotation
		JOINT RightUpLeg
		{
			OFFSET -1.305520 -1.794630 0.839290
			CHANNELS 3 Zrotation Yrotation Xrotation
			JOINT RightLeg
			{
				OFFSET -2.542530 -6.985550 0.000000
				CHANNELS 3 Zrotation Yrotation Xrotation
				JOINT RightFoot
				{
					OFFSET -2.568260 -7.056230 0.000000
					CHANNELS 3 Zrotation Yrotation Xrotation
					JOINT RightToeBase
					{
						OFFSET -0.164730 -0.452590 2.363150
						CHANNELS 3 Zrotation Yrotation Xrotation
						End Site
						{
							OFFSET 0.000000 0.000000 0.000000
						}
					}
				}
			}
		}
	}
	JOINT LowerBack
	{
		OFFSET 0.000000 0.000000 0.000000
		CHANNELS 3 Zrotation Yrotation Xrotation
		JOINT Spine
		{
			OFFSET 0.028270 2.035590 -0.193380
			CHANNELS 3 Zrotation Yrotation Xrotation
			JOINT Spine1
			{
				OFFSET 0.056720 2.048850 -0.042750
				CHANNELS 3 Zrotation Yrotation Xrotation
				JOINT Neck
				{
					OFFSET 0.000000 0.000000 0.000000
					CHANNELS 3 Zrotation Yrotation Xrotation
					JOINT Neck1
					{
						OFFSET -0.054170 1.746240 0.172020
						CHANNELS 3 Zrotation Yrotation Xrotation
						JOINT Head
						{
							OFFSET 0.104070 1.761360 -0.123970
							CHANNELS 3 Zrotation Yrotation Xrotation
							End Site
							{
								OFFSET 0.000000 0.000000 0.000000
							}
						}
					}
				}
				JOINT LeftShoulder
				{
					OFFSET 0.000000 0.000000 0.000000
					CHANNELS 3 Zrotation Yrotation Xrotation
					JOINT LeftArm
					{
						OFFSET 3.362410 1.200890 -0.311210
						CHANNELS 3 Zrotation Yrotation Xrotation
						JOINT LeftForeArm
						{
							OFFSET 4.983000 -0.000000 -0.000000
							CHANNELS 3 Zrotation Yrotation Xrotation
							JOINT LeftHand
							{
								OFFSET 3.483560 -0.000000 -0.000000
								CHANNELS 3 Zrotation Yrotation Xrotation
								JOINT LeftFingerBase
								{
									OFFSET 0.000000 0.000000 0.000000
									CHANNELS 3 Zrotation Yrotation Xrotation
									JOINT LeftHandIndex1
									{
										OFFSET 0.715260 -0.000000 -0.000000
										CHANNELS 3 Zrotation Yrotation Xrotation
										End Site
										{
											OFFSET 0.000000 0.000000 0.000000
										}
									}
								}
								JOINT LThumb
								{
									OFFSET 0.000000 0.000000 0.000000
									CHANNELS 3 Zrotation Yrotation Xrotation
									End Site
									{
										OFFSET 0.000000 0.000000 0.000000
									}
								}
							}
						}
					}
				}
				JOINT RightShoulder
				{
					OFFSET 0.000000 0.000000 0.000000
					CHANNELS 3 Zrotation Yrotation Xrotation
					JOINT RightArm
					{
						OFFSET -3.136600 1.374050 -0.404650
						CHANNELS 3 Zrotation Yrotation Xrotation
						JOINT RightForeArm
						{
							OFFSET -5.241900 -0.000000 -0.000000
							CHANNELS 3 Zrotation Yrotation Xrotation
							JOINT RightHand
							{
								OFFSET -3.444170 -0.000000 -0.000000
								CHANNELS 3 Zrotation Yrotation Xrotation
								JOINT RightFingerBase
								{
									OFFSET 0.000000 0.000000 0.000000
									CHANNELS 3 Zrotation Yrotation Xrotation
									JOINT RightHandIndex1
									{
										OFFSET -0.622530 -0.000000 -0.000000
										CHANNELS 3 Zrotation Yrotation Xrotation
										End Site
										{
											OFFSET 0.000000 0.000000 0.000000
										}
									}
								}
								JOINT RThumb
								{
									OFFSET 0.000000 0.000000 0.000000
									CHANNELS 3 Zrotation Yrotation Xrotation
									End Site
									{
										OFFSET 0.000000 0.000000 0.000000
									}
								}
							}
						}
					}
				}
			}
		}
	}
}
MOTION
Frames: 5
Frame Time: 0.008333
-0.121353 17.691597 -2.473398 2.312186 -2.975291 18.503954 -3.146184 -3.358957 -2.740653 -17.648877 -5.092075 -29.251579 1.161266 11.739773 31.998171 0.916030 -1.673207 -6.098239 0.008200 -0.586300 -1.611100 0.003812 2.319188 -2.750936 13.180879 4.568118 -36.829344 -12.888862 -20.066397 70.466803 -0.388489 3.772208 -0.906126 -0.141800 2.426900 -6.687100 -3.025984 0.444063 -6.667217 -0.019243 0.524771 -9.399948 -0.858690 0.444670 -1.209468 -2.327293 -0.350840 -10.115943 4.763748 -0.679905 10.953630 0.642600 -0.080000 4.156100 13.096749 7.486170 0.087718 -101.627724 7.036730 -3.593823 5.161166 -15.952783 -0.473067 -0.769512 -0.882859 20.977737 19.100630 -16.270576 -5.261700 -7.125000 0.000000 0.000000 -5.447100 14.096700 3.974700 -13.559440 -6.956242 0.400316 100.113702 -10.039996 25.524883 -15.692264 33.006824 -4.214263 -0.411929 -1.580371 -11.442821 -20.001815 -36.839769 11.475900 7.125000 0.000000 0.000000 18.714900 -66.121300 -9.684600 
-0.113775 17.690190 -2.261653 2.090106 -2.919899 18.348286 -3.215698 -3.331132 -2.615902 -17.518889 -4.816972 -28.389504 1.146555 11.682413 31.892190 1.029060 -2.014347 -6.630445 0.004400 -0.427800 -1.175300 -0.005081 2.348608 -2.837303 13.463459 4.868704 -37.893800 -12.476399 -20.006113 69.288547 -0.424942 3.641594 -1.975224 -0.123700 2.266900 -6.243800 -2.646920 0.386595 -6.486150 0.062147 0.390187 -9.380238 -0.886269 0.374480 -1.241870 -2.268205 -0.279694 -10.027259 4.618444 -0.571550 11.039822 0.562100 -0.029400 4.174700 13.130281 7.472095 0.032834 -101.511582 6.028376 -0.065228 5.671621 -16.989122 -0.607449 -0.719034 -0.896315 18.339454 19.329172 -16.516673 -5.419400 -7.125000 0.000000 0.000000 -5.305000 13.792100 3.904400 -13.580636 -6.931383 0.473110 100.255546 -10.690949 23.996468 -14.114726 31.039908 -3.554646 -0.494838 -1.556356 -9.947847 -19.430553 -36.228508 10.938900 7.125000 0.000000 0.000000 18.821200 -65.402300 -9.430400 
-0.102084 17.681963 -2.033344 1.999658 -2.652611 18.242261 -3.278101 -3.303670 -2.493330 -17.564217 -4.453660 -27.575476 1.139258 11.636589 31.813477 1.201498 -2.588148 -7.265268 0.001500 -0.248900 -0.683900 -0.007474 2.376680 -2.929981 13.665331 4.798354 -38.861746 -11.996499 -19.900961 67.898032 -0.441812 3.328487 -2.881346 -0.290200 3.464000 -9.573300 -2.336785 0.279795 -6.585476 0.133153 0.215987 -9.307839 -0.946996 0.272428 -1.004415 -2.190504 -0.255214 -10.064694 4.480647 -0.523274 11.086081 0.478900 -0.007800 4.188300 13.176905 7.470923 -0.019867 -101.331167 4.972520 3.449360 6.196835 -18.041372 -0.751234 -0.675936 -0.905378 15.610241 19.489140 -16.957768 -5.628600 -7.125000 0.000000 0.000000 -5.213100 13.289100 3.891700 -13.623071 -6.929613 0.551956 100.439231 -11.150602 22.006106 -12.499699 28.954170 -2.931588 -0.584539 -1.525209 -7.753937 -18.460907 -35.718315 10.202300 7.125000 0.000000 0.000000 19.476500 -64.666000 -9.438600 
-0.096888 17.673952 -1.808716 1.913261 -2.478159 18.242342 -3.336382 -3.278894 -2.376745 -17.561426 -4.131931 -26.890307 1.129690 11.591323 31.727254 1.317164 -2.921318 -7.819317 0.001300 -0.235700 -0.647600 -0.015182 2.418197 -3.026965 13.875293 4.964127 -39.954554 -11.453090 -19.768194 66.323634 -0.474950 2.966867 -4.192812 -0.500500 4.535200 -12.587500 -2.175278 0.166221 -6.572435 0.225840 0.042254 -9.284147 -0.846133 0.190163 -0.915286 -2.311190 -0.183508 -10.212936 4.504372 -0.409678 11.098655 0.516200 0.044900 4.228000 13.201178 7.460939 -0.075359 -101.076659 4.140176 7.252928 6.912577 -19.412281 -0.984795 -0.591599 -0.902728 12.149387 19.518411 -16.606858 -5.528500 -7.125000 0.000000 0.000000 -5.193300 13.600300 3.842600 -13.655794 -6.916863 0.615287 100.565106 -11.505285 19.717938 -10.973829 26.846755 -2.377108 -0.683742 -1.482056 -5.020306 -17.526658 -35.591625 9.599300 7.125000 0.000000 0.000000 20.458700 -64.304400 -9.761500 
-0.092882 17.677632 -1.586902 1.678999 -2.213806 18.306104 -3.387615 -3.260852 -2.260809 -17.363666 -3.830244 -26.254175 1.119752 11.531348 31.609314 1.456645 -3.428718 -8.053706 0.000200 0.094200 0.258700 -0.017882 2.454882 -3.114828 14.238878 5.146202 -41.112089 -10.818493 -19.586976 64.488937 -0.498051 2.532657 -5.390622 -0.845400 5.864500 -16.391700 -1.797985 0.053002 -6.470370 0.320488 -0.165821 -9.332189 -0.869691 0.089661 -1.112848 -2.297698 -0.089618 -9.878895 4.447219 -0.290798 10.984167 0.488000 0.097000 4.085400 13.201136 7.427478 -0.133485 -100.664515 3.485786 10.721400 7.720241 -20.872750 -1.270906 -0.502449 -0.881491 8.834591 19.380096 -15.860259 -5.245800 -7.125000 0.000000 0.000000 -5.277600 14.328600 3.823900 -13.652975 -6.885477 0.680851 100.707513 -12.200646 17.393983 -9.796249 25.106835 -1.957887 -0.788532 -1.443021 -2.200621 -17.171466 -36.271116 9.530500 7.125000 0.000000 0.000000 21.604400 -64.836000 -10.598600 
